<svg xmlns="http://www.w3.org/2000/svg" viewBox="0 0 64 64" fill="none">
  <defs>
    <linearGradient id="eventailFaviconGradient" x1="10" y1="8" x2="54" y2="56" gradientUnits="userSpaceOnUse">
      <stop offset="0" stop-color="#2A79B7"/>
      <stop offset="1" stop-color="#0B365E"/>
    </linearGradient>
  </defs>
  <rect width="64" height="64" rx="18" fill="#08111D"/>
  <circle cx="32" cy="32" r="22" fill="url(#eventailFaviconGradient)"/>
  <circle cx="32" cy="32" r="16.5" stroke="#FFFFFF" stroke-width="2.4" stroke-dasharray="7.5 5.5" stroke-linecap="round" opacity="0.92"/>
  <circle cx="32" cy="15" r="2.6" fill="#FFFFFF"/>
  <circle cx="44.5" cy="20.5" r="2.6" fill="#FFFFFF"/>
  <circle cx="49" cy="32" r="2.6" fill="#FFFFFF"/>
  <circle cx="44.5" cy="44.5" r="2.6" fill="#FFFFFF"/>
  <circle cx="32" cy="49" r="2.6" fill="#FFFFFF"/>
  <circle cx="19.5" cy="44.5" r="2.6" fill="#FFFFFF"/>
  <circle cx="15" cy="32" r="2.6" fill="#FFFFFF"/>
  <circle cx="19.5" cy="20.5" r="2.6" fill="#FFFFFF"/>
  <path d="M22.5 45L32 19L41.5 45H36.2L33.8 38.3H30.2L27.8 45H22.5Z" fill="#FFFFFF"/>
  <path d="M27.8 34.6C33.2 32.9 36.4 32.6 36.4 28.9C36.4 25.7 33.4 23.1 29.4 23.1" fill="none" stroke="url(#eventailFaviconGradient)" stroke-width="3.1" stroke-linecap="round"/>
  <path d="M32 16L27.6 22.1H30.7V31.3H33.3V22.1H36.4L32 16Z" fill="#FFFFFF"/>
</svg>
